<svg width="48" height="48" viewBox="0 0 48 48" fill="none" xmlns="http://www.w3.org/2000/svg">
  <rect width="48" height="48" rx="8" fill="#5E4FDB"/>
  <path d="M15 18C15 16.3431 16.3431 15 18 15H30C31.6569 15 33 16.3431 33 18V30C33 31.6569 31.6569 33 30 33H18C16.3431 33 15 31.6569 15 30V18Z" fill="white"/>
  <path d="M21 20.5C21 19.6716 21.6716 19 22.5 19C23.3284 19 24 19.6716 24 20.5V27.5C24 28.3284 23.3284 29 22.5 29C21.6716 29 21 28.3284 21 27.5V20.5Z" fill="#5E4FDB"/>
  <path d="M26 22.5C26 21.6716 26.6716 21 27.5 21C28.3284 21 29 21.6716 29 22.5V25.5C29 26.3284 28.3284 27 27.5 27C26.6716 27 26 26.3284 26 25.5V22.5Z" fill="#5E4FDB"/>
</svg>